<svg xmlns="http://www.w3.org/2000/svg" viewBox="0 0 19 35"><title>Asset 12</title><g id="Layer_2" data-name="Layer 2"><g id="Layer_1-2" data-name="Layer 1"><path d="M5.9,26.4c0-2.3,0-4.6,0-6.9s-.2-1.7-1.8-1.7h-3c-.8,0-1.2-.3-1.2-1.2s.1-2,0-3,.4-1.3,1.2-1.3h3c1.2.1,1.7-.4,1.7-1.7A11.6,11.6,0,0,1,7.2,3.9,7.6,7.6,0,0,1,13.9,0h3.9c.8,0,1.2.3,1.2,1.1s0,2.4,0,3.7-.4,1.1-1.1,1.1H14.3a1.8,1.8,0,0,0-2.1,1.7,18.5,18.5,0,0,0-.1,3.8c0,.4.8.9,1.3.9a41.6,41.6,0,0,0,4.3,0c.9,0,1.3.3,1.2,1.2s0,2,0,3-.4,1.2-1.3,1.2h-4c-1.2,0-1.6.4-1.6,1.6,0,4.6,0,9.2,0,13.8,0,1.8,0,1.8-1.8,1.8h-3c-1,0-1.3-.4-1.3-1.3C6,31.2,5.9,28.8,5.9,26.4Z" fill="#fff"/></g></g></svg>