<svg xmlns="http://www.w3.org/2000/svg" viewBox="0 0 30 26.5"><title>Asset 13</title><g id="Layer_2" data-name="Layer 2"><g id="Layer_1-2" data-name="Layer 1"><path d="M29.4,1.4a2.2,2.2,0,0,0-1.4.2,3.1,3.1,0,0,1-3.6-.4A5.6,5.6,0,0,0,18,.8a6.2,6.2,0,0,0-3.4,5.6c-.1,1.9-.3,2.1-2.1,1.7A19,19,0,0,1,2.3,2.9L.9,1.7C-.5,4.9.5,7.5,2.8,10.1L.3,9.9c.1,3,2,4.6,4.5,6l-2,.8c1,2.5,3.1,3.4,5.5,4.2C5.9,23.2,3.1,23.7,0,24l.9.6c5.7,3.1,14.3,2.1,19.3-2a19.1,19.1,0,0,0,7.1-13c.2-2.1.6-3.9,2.4-5.2.1-.1.2-.3.3-.6L27.5,4Z" fill="#fff"/><path d="M29.7,4.4c-1.8,1.3-2.1,3.1-2.4,5.2a19.1,19.1,0,0,1-7.1,13c-5,4.2-13.6,5.1-19.3,2L0,24c3.1-.3,5.9-.9,8.4-3.1-2.5-.8-4.6-1.7-5.5-4.2l2-.8c-2.5-1.4-4.4-3-4.5-6l2.5.2C.5,7.5-.5,4.9.9,1.7L2.3,2.9A19,19,0,0,0,12.5,8.1c1.9.3,2.1.2,2.1-1.7A6.2,6.2,0,0,1,18,.8a5.6,5.6,0,0,1,6.4.3,3.1,3.1,0,0,0,3.6.4,2.2,2.2,0,0,1,1.4-.2L27.5,4,30,3.8C29.8,4.1,29.8,4.3,29.7,4.4Z" fill="#fff"/></g></g></svg>